<mxfile host="app.diagrams.net" modified="2022-12-27T02:57:54.752Z" agent="5.0 (X11)" etag="M3KoCeRfwlImdeBXLH0q" version="20.5.3" type="github">
  <diagram id="DdFkb1q0ximn8g-mRU3F" name="Page-1">
    <mxGraphModel dx="2881" dy="1079" grid="1" gridSize="10" guides="1" tooltips="1" connect="1" arrows="1" fold="1" page="1" pageScale="1" pageWidth="850" pageHeight="1100" math="0" shadow="0">
      <root>
        <mxCell id="0" />
        <mxCell id="1" parent="0" />
        <mxCell id="ko2sCoa1ENeEitmVXedh-2" value="" style="rounded=1;whiteSpace=wrap;html=1;" vertex="1" parent="1">
          <mxGeometry x="-380" y="170" width="240" height="390" as="geometry" />
        </mxCell>
        <mxCell id="ko2sCoa1ENeEitmVXedh-5" style="edgeStyle=orthogonalEdgeStyle;rounded=0;orthogonalLoop=1;jettySize=auto;html=1;" edge="1" parent="1" source="ko2sCoa1ENeEitmVXedh-3" target="ko2sCoa1ENeEitmVXedh-2">
          <mxGeometry relative="1" as="geometry" />
        </mxCell>
        <mxCell id="ko2sCoa1ENeEitmVXedh-3" value="login" style="text;html=1;strokeColor=none;fillColor=none;align=center;verticalAlign=middle;whiteSpace=wrap;rounded=0;" vertex="1" parent="1">
          <mxGeometry x="-290" y="100" width="60" height="30" as="geometry" />
        </mxCell>
        <mxCell id="ko2sCoa1ENeEitmVXedh-6" value="" style="rounded=1;whiteSpace=wrap;html=1;" vertex="1" parent="1">
          <mxGeometry x="-50" y="170" width="240" height="390" as="geometry" />
        </mxCell>
        <mxCell id="ko2sCoa1ENeEitmVXedh-7" style="edgeStyle=orthogonalEdgeStyle;rounded=0;orthogonalLoop=1;jettySize=auto;html=1;" edge="1" parent="1" source="ko2sCoa1ENeEitmVXedh-8" target="ko2sCoa1ENeEitmVXedh-6">
          <mxGeometry relative="1" as="geometry" />
        </mxCell>
        <mxCell id="ko2sCoa1ENeEitmVXedh-8" value="home" style="text;html=1;strokeColor=none;fillColor=none;align=center;verticalAlign=middle;whiteSpace=wrap;rounded=0;" vertex="1" parent="1">
          <mxGeometry x="40" y="100" width="60" height="30" as="geometry" />
        </mxCell>
        <mxCell id="ko2sCoa1ENeEitmVXedh-9" value="" style="rounded=1;whiteSpace=wrap;html=1;" vertex="1" parent="1">
          <mxGeometry x="270" y="170" width="240" height="390" as="geometry" />
        </mxCell>
        <mxCell id="ko2sCoa1ENeEitmVXedh-10" style="edgeStyle=orthogonalEdgeStyle;rounded=0;orthogonalLoop=1;jettySize=auto;html=1;" edge="1" parent="1" source="ko2sCoa1ENeEitmVXedh-11" target="ko2sCoa1ENeEitmVXedh-9">
          <mxGeometry relative="1" as="geometry" />
        </mxCell>
        <mxCell id="ko2sCoa1ENeEitmVXedh-11" value="home drawer" style="text;html=1;strokeColor=none;fillColor=none;align=center;verticalAlign=middle;whiteSpace=wrap;rounded=0;" vertex="1" parent="1">
          <mxGeometry x="360" y="100" width="60" height="30" as="geometry" />
        </mxCell>
      </root>
    </mxGraphModel>
  </diagram>
</mxfile>
